# xmcd
#
# Track frame offsets:
#	150
#	11357
#	26252
#	37372
#	50630
#	64622
#	79530
#	103085
#	115987
#	128312
#	138525
#	160320
#	171570
#	189760
#	198960
#	217625
#	233745
#
# Disc length: 3323 seconds
# Revision: 0
# Processed by: cddbd v1.5.2PL0 Copyright (c) Steve Scherf et al.
# Submitted via: dBpowerAMP V12.0
#
DISCID=da0cf911
DTITLE=Various Artist - Green, Green Grass of Home - disc 4
DYEAR=2007
DGENRE=Country
TTITLE0=Eddy Arnold - Home On the Range
TTITLE1=Gene Autry - Tumbling Tumbleweeds
TTITLE2=Ernest Tubb - The Yellow Rose of Texas
TTITLE3=Frankie Laine - Cool Water
TTITLE4=James Galway with Sylva - The Wayward Wind
TTITLE5=Willie Nelson - South of the Border (Down Mexico Way)
TTITLE6=Waylon Jennings - Waltz Across Texas
TTITLE7=Jimmie Davis - You Are My Sunshine
TTITLE8=Roy Rogers - Hoppy, Gene and Me
TTITLE9=Elvis Presley - America the Beautiful
TTITLE10=Bobby Bare - Me And Jimmie Rodgers
TTITLE11=Tennessee Ernie Ford - Battle Hymn of the Republic
TTITLE12=Johnny Cash - What Have You Got Planned Tonight, Diana
TTITLE13=LeAnn Rimes - The Star-Spangled Banner
TTITLE14=Don Williams - Maggie's Dream
TTITLE15=Nitty Gritty Dirt Band - Home Again In My Heart
TTITLE16=Dolly Parton - When Johnny Comes Marching Home
EXTD=
EXTT0=
EXTT1=
EXTT2=
EXTT3=
EXTT4=
EXTT5=
EXTT6=
EXTT7=
EXTT8=
EXTT9=
EXTT10=
EXTT11=
EXTT12=
EXTT13=
EXTT14=
EXTT15=
EXTT16=
PLAYORDER=
